{
 "cells": [
  {
   "cell_type": "code",
   "execution_count": null,
   "metadata": {},
   "outputs": [],
   "source": [
    "import time\n",
    "from pathlib import Path\n",
    "import shutil\n",
    "\n",
    "import cv2\n",
    "import diffusers\n",
    "import matplotlib.pyplot as plt\n",
    "import numpy as np\n",
    "import torch\n",
    "from diffusers import LMSDiscreteScheduler, StableDiffusionPipeline\n",
    "from PIL import Image\n",
    "from skimage.exposure import match_histograms\n",
    "from torch import autocast\n",
    "from torchvision import transforms as tfms\n",
    "from tqdm.auto import tqdm\n",
    "\n",
    "from img2img import StableDiffusionImg2ImgPipeline"
   ]
  },
  {
   "cell_type": "code",
   "execution_count": 2,
   "metadata": {},
   "outputs": [],
   "source": [
    "STABLE_DIFFUSION_MODEL_PATH = Path.home() / \"Desktop/stable-diffusion-v1-4\"\n",
    "device = \"cuda\" if torch.cuda.is_available() else \"cpu\""
   ]
  },
  {
   "cell_type": "code",
   "execution_count": 3,
   "metadata": {},
   "outputs": [
    {
     "name": "stderr",
     "output_type": "stream",
     "text": [
      "{'trained_betas'} was not found in config. Values will be initialized to default values.\n",
      "ftfy or spacy is not installed using BERT BasicTokenizer instead of ftfy.\n"
     ]
    },
    {
     "data": {
      "text/plain": [
       "StableDiffusionImg2ImgPipeline {\n",
       "  \"_class_name\": \"StableDiffusionImg2ImgPipeline\",\n",
       "  \"_diffusers_version\": \"0.3.0\",\n",
       "  \"scheduler\": [\n",
       "    \"diffusers\",\n",
       "    \"LMSDiscreteScheduler\"\n",
       "  ],\n",
       "  \"text_encoder\": [\n",
       "    \"transformers\",\n",
       "    \"CLIPTextModel\"\n",
       "  ],\n",
       "  \"tokenizer\": [\n",
       "    \"transformers\",\n",
       "    \"CLIPTokenizer\"\n",
       "  ],\n",
       "  \"unet\": [\n",
       "    \"diffusers\",\n",
       "    \"UNet2DConditionModel\"\n",
       "  ],\n",
       "  \"vae\": [\n",
       "    \"diffusers\",\n",
       "    \"AutoencoderKL\"\n",
       "  ]\n",
       "}"
      ]
     },
     "execution_count": 3,
     "metadata": {},
     "output_type": "execute_result"
    }
   ],
   "source": [
    "# Load the txt_to_img pipeline\n",
    "txt_to_img = StableDiffusionPipeline.from_pretrained(\n",
    "    str(STABLE_DIFFUSION_MODEL_PATH), revision=\"fp16\", torch_dtype=torch.float16\n",
    ")\n",
    "# Turn off safety_checker to avoid false positives\n",
    "txt_to_img.safety_checker = lambda images, **kwargs: (images, False)\n",
    "# txt_to_img.enable_attention_slicing()  # use less vram\n",
    "txt_to_img = txt_to_img.to(device)\n",
    "# Load the img2img pipeline, using the models\n",
    "# from the txt_to_img pipeline, to not waste vram.\n",
    "im2im = StableDiffusionImg2ImgPipeline(\n",
    "    vae=txt_to_img.vae,\n",
    "    text_encoder=txt_to_img.text_encoder,\n",
    "    tokenizer=txt_to_img.tokenizer,\n",
    "    unet=txt_to_img.unet,\n",
    "    scheduler=LMSDiscreteScheduler(\n",
    "        beta_start=0.00085,\n",
    "        beta_end=0.012,\n",
    "        beta_schedule=\"scaled_linear\",\n",
    "        num_train_timesteps=1000,\n",
    "    ),\n",
    ")\n",
    "# im2im.enable_attention_slicing()\n",
    "im2im.progress_bar = lambda iterable: iterable  # turn off progress bar\n",
    "im2im.to(device)"
   ]
  },
  {
   "cell_type": "code",
   "execution_count": 4,
   "metadata": {},
   "outputs": [],
   "source": [
    "# Helpers\n",
    "\n",
    "\n",
    "def timestamp():\n",
    "    return time.strftime(\"%Y%m%d-%H%M%S\")\n",
    "\n",
    "\n",
    "def maintain_colors(prev_img, color_match_sample, mode):\n",
    "    # source: https://colab.research.google.com/github/deforum/stable-diffusion/blob/main/Deforum_Stable_Diffusion.ipynb#scrollTo=2g-f7cQmf2Nt\n",
    "    return match_histograms(prev_img, color_match_sample, multichannel=True)\n"
   ]
  },
  {
   "cell_type": "code",
   "execution_count": 249,
   "metadata": {},
   "outputs": [
    {
     "name": "stdout",
     "output_type": "stream",
     "text": [
      "notebook_path.resolve() = PosixPath('/home/sid/Documents/stable-diffusion-im2im/main.ipynb')\n",
      "OUTPUT_DIR.resolve() = PosixPath('/home/sid/Documents/stable-diffusion-im2im/images/20221002-175107')\n"
     ]
    }
   ],
   "source": [
    "OUTPUT_DIR = Path(f\"images/{timestamp()}\")\n",
    "PROMPT_A = \"A colour photo of Marilyn Monroe\"\n",
    "PROMPT_B = \"A photo of Elvis Presley\"\n",
    "GUIDANCE_SCALE = 7.5\n",
    "IMG2IMG_STRENGTH = 0.3\n",
    "NUM_IMG2IMG_STEPS = 20\n",
    "SEED = 10\n",
    "WIDTH = 512\n",
    "HEIGHT = 512\n",
    "OUTPUT_DIR.mkdir(exist_ok=True, parents=True)\n",
    "# Use same random seed for everything\n",
    "generator = torch.Generator(\"cuda\").manual_seed(SEED)\n",
    "# To know where things were\n",
    "notebook_path = Path(__vsc_ipynb_file__)  # vscode only\n",
    "print(f\"{notebook_path.resolve() = }\")\n",
    "print(f\"{OUTPUT_DIR.resolve() = }\")"
   ]
  },
  {
   "cell_type": "code",
   "execution_count": 250,
   "metadata": {},
   "outputs": [
    {
     "data": {
      "text/plain": [
       "PosixPath('images/20221002-175107/main_20221002-175107.ipynb')"
      ]
     },
     "execution_count": 250,
     "metadata": {},
     "output_type": "execute_result"
    }
   ],
   "source": [
    "# save a copy of this nb in OUTPUT_DIR, for reproducibility\n",
    "shutil.copy(\n",
    "    src=notebook_path, dst=OUTPUT_DIR / f\"{notebook_path.stem}_{timestamp()}.ipynb\"\n",
    ")"
   ]
  },
  {
   "cell_type": "code",
   "execution_count": 251,
   "metadata": {},
   "outputs": [
    {
     "name": "stderr",
     "output_type": "stream",
     "text": [
      "100%|██████████| 51/51 [00:09<00:00,  5.29it/s]\n"
     ]
    }
   ],
   "source": [
    "# Generate the initial image\n",
    "with autocast(\"cuda\"), torch.no_grad():\n",
    "    init_image = txt_to_img(\n",
    "        [PROMPT_A], width=WIDTH, height=HEIGHT, generator=generator\n",
    "    )[\"sample\"][0]\n",
    "init_image.save(OUTPUT_DIR / f\"{PROMPT_A}_{PROMPT_B}_{0:04d}.jpg\")\n",
    "image = init_image\n",
    "i = 0"
   ]
  },
  {
   "cell_type": "code",
   "execution_count": 252,
   "metadata": {},
   "outputs": [
    {
     "name": "stderr",
     "output_type": "stream",
     "text": [
      "  0%|          | 0/20 [00:00<?, ?it/s]/tmp/ipykernel_52008/570955215.py:11: FutureWarning: `multichannel` is a deprecated argument name for `match_histograms`. It will be removed in version 1.0. Please use `channel_axis` instead.\n",
      "  return match_histograms(prev_img, color_match_sample, multichannel=True)\n",
      "100%|██████████| 20/20 [01:04<00:00,  3.23s/it]"
     ]
    },
    {
     "name": "stdout",
     "output_type": "stream",
     "text": [
      "i = 20\n"
     ]
    },
    {
     "name": "stderr",
     "output_type": "stream",
     "text": [
      "\n"
     ]
    }
   ],
   "source": [
    "i_start = i + 1  # means can rerun cell to continue generation\n",
    "# Generate the rest of the images\n",
    "for i in tqdm(range(i_start, i_start + NUM_IMG2IMG_STEPS)):\n",
    "    # Try to prevent colours from going red\n",
    "    image = Image.fromarray(\n",
    "        maintain_colors(np.array(image), np.array(init_image), \"Match Frame 0 RGB\")\n",
    "    )\n",
    "    generator = torch.Generator(\"cuda\").manual_seed(i)\n",
    "    with autocast(\"cuda\"), torch.no_grad():\n",
    "        image = im2im(\n",
    "            PROMPT_B,\n",
    "            image,\n",
    "            strength=IMG2IMG_STRENGTH,\n",
    "            guidance_scale=GUIDANCE_SCALE,\n",
    "            generator=generator,\n",
    "        )[\"sample\"][0]\n",
    "    image.save(OUTPUT_DIR / f\"{PROMPT_A}_{PROMPT_B}_{i:04d}.jpg\")\n",
    "print(f\"{i = }\")"
   ]
  },
  {
   "cell_type": "code",
   "execution_count": 253,
   "metadata": {},
   "outputs": [
    {
     "name": "stdout",
     "output_type": "stream",
     "text": [
      "ffmpeg version 4.4.2 Copyright (c) 2000-2021 the FFmpeg developers\n",
      "  built with gcc 10.4.0 (conda-forge gcc 10.4.0-16)\n",
      "  configuration: --prefix=/home/conda/feedstock_root/build_artifacts/ffmpeg_1664281150702/_h_env_placehold_placehold_placehold_placehold_placehold_placehold_placehold_placehold_placehold_placehold_placehold_placehold_placehold_placehold_placehold_placehold_placehold_placehold_plac --cc=/home/conda/feedstock_root/build_artifacts/ffmpeg_1664281150702/_build_env/bin/x86_64-conda-linux-gnu-cc --cxx=/home/conda/feedstock_root/build_artifacts/ffmpeg_1664281150702/_build_env/bin/x86_64-conda-linux-gnu-c++ --nm=/home/conda/feedstock_root/build_artifacts/ffmpeg_1664281150702/_build_env/bin/x86_64-conda-linux-gnu-nm --ar=/home/conda/feedstock_root/build_artifacts/ffmpeg_1664281150702/_build_env/bin/x86_64-conda-linux-gnu-ar --disable-doc --disable-openssl --enable-avresample --enable-demuxer=dash --enable-hardcoded-tables --enable-libfreetype --enable-libfontconfig --enable-libopenh264 --enable-gnutls --enable-libmp3lame --enable-libvpx --enable-pthreads --enable-vaapi --enable-gpl --enable-libx264 --enable-libx265 --enable-libaom --enable-libsvtav1 --enable-libxml2 --enable-pic --enable-shared --disable-static --enable-version3 --enable-zlib --pkg-config=/home/conda/feedstock_root/build_artifacts/ffmpeg_1664281150702/_build_env/bin/pkg-config\n",
      "  libavutil      56. 70.100 / 56. 70.100\n",
      "  libavcodec     58.134.100 / 58.134.100\n",
      "  libavformat    58. 76.100 / 58. 76.100\n",
      "  libavdevice    58. 13.100 / 58. 13.100\n",
      "  libavfilter     7.110.100 /  7.110.100\n",
      "  libavresample   4.  0.  0 /  4.  0.  0\n",
      "  libswscale      5.  9.100 /  5.  9.100\n",
      "  libswresample   3.  9.100 /  3.  9.100\n",
      "  libpostproc    55.  9.100 / 55.  9.100\n",
      "Input #0, image2, from 'images/20221002-175107/*.jpg':\n",
      "  Duration: 00:00:02.63, start: 0.000000, bitrate: N/A\n",
      "  Stream #0:0: Video: mjpeg (Baseline), yuvj420p(pc, bt470bg/unknown/unknown), 512x512 [SAR 1:1 DAR 1:1], 8 fps, 8 tbr, 8 tbn, 8 tbc\n",
      "Stream mapping:\n",
      "  Stream #0:0 -> #0:0 (mjpeg (native) -> h264 (libx264))\n",
      "Press [q] to stop, [?] for help\n",
      "\u001b[1;34m[swscaler @ 0x56344d3e8840] \u001b[0m\u001b[0;33mdeprecated pixel format used, make sure you did set range correctly\n",
      "\u001b[0m\u001b[1;36m[libx264 @ 0x56344d2cb380] \u001b[0musing SAR=1/1\n",
      "\u001b[1;36m[libx264 @ 0x56344d2cb380] \u001b[0musing cpu capabilities: MMX2 SSE2Fast SSSE3 SSE4.2 AVX FMA3 BMI2 AVX2\n",
      "\u001b[1;36m[libx264 @ 0x56344d2cb380] \u001b[0mprofile High, level 2.2, 4:2:0, 8-bit\n",
      "\u001b[1;36m[libx264 @ 0x56344d2cb380] \u001b[0m264 - core 164 r3095 baee400 - H.264/MPEG-4 AVC codec - Copyleft 2003-2022 - http://www.videolan.org/x264.html - options: cabac=1 ref=3 deblock=1:0:0 analyse=0x3:0x113 me=hex subme=7 psy=1 psy_rd=1.00:0.00 mixed_ref=1 me_range=16 chroma_me=1 trellis=1 8x8dct=1 cqm=0 deadzone=21,11 fast_pskip=1 chroma_qp_offset=-2 threads=16 lookahead_threads=2 sliced_threads=0 nr=0 decimate=1 interlaced=0 bluray_compat=0 constrained_intra=0 bframes=3 b_pyramid=2 b_adapt=1 b_bias=0 direct=1 weightb=1 open_gop=0 weightp=2 keyint=250 keyint_min=8 scenecut=40 intra_refresh=0 rc_lookahead=40 rc=crf mbtree=1 crf=23.0 qcomp=0.60 qpmin=0 qpmax=69 qpstep=4 ip_ratio=1.40 aq=1:1.00\n",
      "Output #0, mp4, to 'images/20221002-175107/movie.mp4':\n",
      "  Metadata:\n",
      "    encoder         : Lavf58.76.100\n",
      "  Stream #0:0: Video: h264 (avc1 / 0x31637661), yuv420p(tv, bt470bg/unknown/unknown, progressive), 512x512 [SAR 1:1 DAR 1:1], q=2-31, 8 fps, 16384 tbn\n",
      "    Metadata:\n",
      "      encoder         : Lavc58.134.100 libx264\n",
      "    Side data:\n",
      "      cpb: bitrate max/min/avg: 0/0/0 buffer size: 0 vbv_delay: N/A\n",
      "frame=   21 fps=0.0 q=-1.0 Lsize=     437kB time=00:00:02.25 bitrate=1589.4kbits/s speed= 8.9x    \n",
      "video:435kB audio:0kB subtitle:0kB other streams:0kB global headers:0kB muxing overhead: 0.253863%\n",
      "\u001b[1;36m[libx264 @ 0x56344d2cb380] \u001b[0mframe I:1     Avg QP:24.41  size: 27563\n",
      "\u001b[1;36m[libx264 @ 0x56344d2cb380] \u001b[0mframe P:5     Avg QP:24.15  size: 23842\n",
      "\u001b[1;36m[libx264 @ 0x56344d2cb380] \u001b[0mframe B:15    Avg QP:24.77  size: 19896\n",
      "\u001b[1;36m[libx264 @ 0x56344d2cb380] \u001b[0mconsecutive B-frames:  4.8%  0.0%  0.0% 95.2%\n",
      "\u001b[1;36m[libx264 @ 0x56344d2cb380] \u001b[0mmb I  I16..4:  2.2% 93.7%  4.1%\n",
      "\u001b[1;36m[libx264 @ 0x56344d2cb380] \u001b[0mmb P  I16..4:  5.2% 71.7%  5.2%  P16..4:  5.4%  7.1%  3.3%  0.0%  0.0%    skip: 2.1%\n",
      "\u001b[1;36m[libx264 @ 0x56344d2cb380] \u001b[0mmb B  I16..4:  3.3% 34.8%  3.8%  B16..8: 18.3% 20.5%  7.7%  direct: 8.7%  skip: 3.0%  L0:36.8% L1:33.3% BI:29.9%\n",
      "\u001b[1;36m[libx264 @ 0x56344d2cb380] \u001b[0m8x8 transform intra:85.5% inter:87.5%\n",
      "\u001b[1;36m[libx264 @ 0x56344d2cb380] \u001b[0mcoded y,uvDC,uvAC intra: 85.9% 95.3% 60.8% inter: 68.8% 88.3% 33.0%\n",
      "\u001b[1;36m[libx264 @ 0x56344d2cb380] \u001b[0mi16 v,h,dc,p: 44%  9%  3% 44%\n",
      "\u001b[1;36m[libx264 @ 0x56344d2cb380] \u001b[0mi8 v,h,dc,ddl,ddr,vr,hd,vl,hu: 25% 17% 18%  4%  7%  8%  8%  7%  6%\n",
      "\u001b[1;36m[libx264 @ 0x56344d2cb380] \u001b[0mi4 v,h,dc,ddl,ddr,vr,hd,vl,hu: 16% 12%  8%  7% 14% 15% 13%  9%  7%\n",
      "\u001b[1;36m[libx264 @ 0x56344d2cb380] \u001b[0mi8c dc,h,v,p: 37% 21% 27% 16%\n",
      "\u001b[1;36m[libx264 @ 0x56344d2cb380] \u001b[0mWeighted P-Frames: Y:0.0% UV:0.0%\n",
      "\u001b[1;36m[libx264 @ 0x56344d2cb380] \u001b[0mref P L0: 46.1% 10.4% 26.6% 16.9%\n",
      "\u001b[1;36m[libx264 @ 0x56344d2cb380] \u001b[0mref B L0: 82.0% 13.8%  4.2%\n",
      "\u001b[1;36m[libx264 @ 0x56344d2cb380] \u001b[0mref B L1: 91.7%  8.3%\n",
      "\u001b[1;36m[libx264 @ 0x56344d2cb380] \u001b[0mkb/s:1356.86\n",
      "VLC media player 3.0.16 Vetinari (revision 3.0.16-0-g5e70837d8d)\n",
      "[\u001b[32;1m000055bce642fa00\u001b[0m] main libvlc: \u001b[0;1mRunning vlc with the default interface. Use 'cvlc' to use vlc without interface.\u001b[0m\n",
      "TagLib: MP4: No audio tracks\n",
      "Qt: Session management error: Could not open network socket\n",
      "TagLib: MP4: No audio tracks\n",
      "libva info: VA-API version 1.1.0\n",
      "libva info: va_getDriverName() returns 0\n",
      "libva info: Trying to open /snap/vlc/2344/usr/lib/x86_64-linux-gnu/dri/nvidia_drv_video.so\n",
      "libva info: Found init function __vaDriverInit_1_0\n",
      "libva info: va_openDriver() returns 0\n",
      "[\u001b[32;1m00007fcaf4001f30\u001b[0m] glconv_vaapi_x11 gl error: \u001b[31;1mvaCreateSurfaces: attribute not supported\u001b[0m\n",
      "[\u001b[32;1m00007fcafc04e840\u001b[0m] main video output error: \u001b[31;1mvideo output creation failed\u001b[0m\n",
      "[\u001b[32;1m00007fcb08c09040\u001b[0m] main decoder error: \u001b[31;1mfailed to create video output\u001b[0m\n",
      "[\u001b[32;1m00007fcb08c09040\u001b[0m] avcodec decoder: \u001b[0;1mUsing NVIDIA VDPAU Driver Shared Library  470.141.03  Thu Jun 30 18:33:34 UTC 2022 for hardware decoding\u001b[0m\n",
      "TagLib: MP4: No audio tracks\n",
      "[\u001b[32;1m00007fcb08c0efc0\u001b[0m] avcodec decoder: \u001b[0;1mUsing NVIDIA VDPAU Driver Shared Library  470.141.03  Thu Jun 30 18:33:34 UTC 2022 for hardware decoding\u001b[0m\n",
      "TagLib: MP4: No audio tracks\n",
      "[\u001b[32;1m00007fcb08c02b90\u001b[0m] avcodec decoder: \u001b[0;1mUsing NVIDIA VDPAU Driver Shared Library  470.141.03  Thu Jun 30 18:33:34 UTC 2022 for hardware decoding\u001b[0m\n",
      "TagLib: MP4: No audio tracks\n",
      "[\u001b[32;1m00007fcb08c048b0\u001b[0m] avcodec decoder: \u001b[0;1mUsing NVIDIA VDPAU Driver Shared Library  470.141.03  Thu Jun 30 18:33:34 UTC 2022 for hardware decoding\u001b[0m\n",
      "TagLib: MP4: No audio tracks\n",
      "[\u001b[32;1m00007fcb08c44cc0\u001b[0m] avcodec decoder: \u001b[0;1mUsing NVIDIA VDPAU Driver Shared Library  470.141.03  Thu Jun 30 18:33:34 UTC 2022 for hardware decoding\u001b[0m\n",
      "TagLib: MP4: No audio tracks\n",
      "[\u001b[32;1m00007fcb08ccab80\u001b[0m] avcodec decoder: \u001b[0;1mUsing NVIDIA VDPAU Driver Shared Library  470.141.03  Thu Jun 30 18:33:34 UTC 2022 for hardware decoding\u001b[0m\n",
      "TagLib: MP4: No audio tracks\n",
      "[\u001b[32;1m00007fcb08c22b80\u001b[0m] avcodec decoder: \u001b[0;1mUsing NVIDIA VDPAU Driver Shared Library  470.141.03  Thu Jun 30 18:33:34 UTC 2022 for hardware decoding\u001b[0m\n",
      "TagLib: MP4: No audio tracks\n",
      "[\u001b[32;1m00007fcb08000990\u001b[0m] avcodec decoder: \u001b[0;1mUsing NVIDIA VDPAU Driver Shared Library  470.141.03  Thu Jun 30 18:33:34 UTC 2022 for hardware decoding\u001b[0m\n",
      "TagLib: MP4: No audio tracks\n",
      "[\u001b[32;1m00007fcb08c47620\u001b[0m] avcodec decoder: \u001b[0;1mUsing NVIDIA VDPAU Driver Shared Library  470.141.03  Thu Jun 30 18:33:34 UTC 2022 for hardware decoding\u001b[0m\n",
      "TagLib: MP4: No audio tracks\n",
      "[\u001b[32;1m00007fcb08c07e30\u001b[0m] avcodec decoder: \u001b[0;1mUsing NVIDIA VDPAU Driver Shared Library  470.141.03  Thu Jun 30 18:33:34 UTC 2022 for hardware decoding\u001b[0m\n",
      "TagLib: MP4: No audio tracks\n",
      "[\u001b[32;1m00007fcb08c020b0\u001b[0m] avcodec decoder: \u001b[0;1mUsing NVIDIA VDPAU Driver Shared Library  470.141.03  Thu Jun 30 18:33:34 UTC 2022 for hardware decoding\u001b[0m\n",
      "TagLib: MP4: No audio tracks\n",
      "[\u001b[32;1m00007fcb08c0e670\u001b[0m] avcodec decoder: \u001b[0;1mUsing NVIDIA VDPAU Driver Shared Library  470.141.03  Thu Jun 30 18:33:34 UTC 2022 for hardware decoding\u001b[0m\n",
      "TagLib: MP4: No audio tracks\n",
      "[\u001b[32;1m00007fcb08c0efc0\u001b[0m] avcodec decoder: \u001b[0;1mUsing NVIDIA VDPAU Driver Shared Library  470.141.03  Thu Jun 30 18:33:34 UTC 2022 for hardware decoding\u001b[0m\n",
      "TagLib: MP4: No audio tracks\n",
      "[\u001b[32;1m00007fcb08c07df0\u001b[0m] avcodec decoder: \u001b[0;1mUsing NVIDIA VDPAU Driver Shared Library  470.141.03  Thu Jun 30 18:33:34 UTC 2022 for hardware decoding\u001b[0m\n",
      "TagLib: MP4: No audio tracks\n",
      "[\u001b[32;1m00007fcb08c07df0\u001b[0m] avcodec decoder: \u001b[0;1mUsing NVIDIA VDPAU Driver Shared Library  470.141.03  Thu Jun 30 18:33:34 UTC 2022 for hardware decoding\u001b[0m\n",
      "TagLib: MP4: No audio tracks\n",
      "[\u001b[32;1m00007fcb08c10e60\u001b[0m] avcodec decoder: \u001b[0;1mUsing NVIDIA VDPAU Driver Shared Library  470.141.03  Thu Jun 30 18:33:34 UTC 2022 for hardware decoding\u001b[0m\n",
      "TagLib: MP4: No audio tracks\n",
      "[\u001b[32;1m00007fcb08c22f20\u001b[0m] avcodec decoder: \u001b[0;1mUsing NVIDIA VDPAU Driver Shared Library  470.141.03  Thu Jun 30 18:33:34 UTC 2022 for hardware decoding\u001b[0m\n",
      "TagLib: MP4: No audio tracks\n",
      "[\u001b[32;1m00007fcb08c05d60\u001b[0m] avcodec decoder: \u001b[0;1mUsing NVIDIA VDPAU Driver Shared Library  470.141.03  Thu Jun 30 18:33:34 UTC 2022 for hardware decoding\u001b[0m\n",
      "TagLib: MP4: No audio tracks\n",
      "[\u001b[32;1m00007fcb08c0b6c0\u001b[0m] avcodec decoder: \u001b[0;1mUsing NVIDIA VDPAU Driver Shared Library  470.141.03  Thu Jun 30 18:33:34 UTC 2022 for hardware decoding\u001b[0m\n",
      "TagLib: MP4: No audio tracks\n",
      "[\u001b[32;1m00007fcb08c08b50\u001b[0m] avcodec decoder: \u001b[0;1mUsing NVIDIA VDPAU Driver Shared Library  470.141.03  Thu Jun 30 18:33:34 UTC 2022 for hardware decoding\u001b[0m\n",
      "TagLib: MP4: No audio tracks\n",
      "[\u001b[32;1m00007fcb08c47ef0\u001b[0m] avcodec decoder: \u001b[0;1mUsing NVIDIA VDPAU Driver Shared Library  470.141.03  Thu Jun 30 18:33:34 UTC 2022 for hardware decoding\u001b[0m\n",
      "TagLib: MP4: No audio tracks\n",
      "[\u001b[32;1m00007fcb08c0df70\u001b[0m] avcodec decoder: \u001b[0;1mUsing NVIDIA VDPAU Driver Shared Library  470.141.03  Thu Jun 30 18:33:34 UTC 2022 for hardware decoding\u001b[0m\n",
      "TagLib: MP4: No audio tracks\n",
      "[\u001b[32;1m00007fcb08c04670\u001b[0m] avcodec decoder: \u001b[0;1mUsing NVIDIA VDPAU Driver Shared Library  470.141.03  Thu Jun 30 18:33:34 UTC 2022 for hardware decoding\u001b[0m\n",
      "TagLib: MP4: No audio tracks\n",
      "[\u001b[32;1m00007fcb08c06040\u001b[0m] avcodec decoder: \u001b[0;1mUsing NVIDIA VDPAU Driver Shared Library  470.141.03  Thu Jun 30 18:33:34 UTC 2022 for hardware decoding\u001b[0m\n",
      "TagLib: MP4: No audio tracks\n",
      "[\u001b[32;1m00007fcb08c49fe0\u001b[0m] avcodec decoder: \u001b[0;1mUsing NVIDIA VDPAU Driver Shared Library  470.141.03  Thu Jun 30 18:33:34 UTC 2022 for hardware decoding\u001b[0m\n",
      "TagLib: MP4: No audio tracks\n",
      "[\u001b[32;1m00007fcb08c02b10\u001b[0m] avcodec decoder: \u001b[0;1mUsing NVIDIA VDPAU Driver Shared Library  470.141.03  Thu Jun 30 18:33:34 UTC 2022 for hardware decoding\u001b[0m\n",
      "TagLib: MP4: No audio tracks\n",
      "[\u001b[32;1m00007fcb08c0b6c0\u001b[0m] avcodec decoder: \u001b[0;1mUsing NVIDIA VDPAU Driver Shared Library  470.141.03  Thu Jun 30 18:33:34 UTC 2022 for hardware decoding\u001b[0m\n",
      "TagLib: MP4: No audio tracks\n",
      "[\u001b[32;1m00007fcb08c08b50\u001b[0m] avcodec decoder: \u001b[0;1mUsing NVIDIA VDPAU Driver Shared Library  470.141.03  Thu Jun 30 18:33:34 UTC 2022 for hardware decoding\u001b[0m\n",
      "TagLib: MP4: No audio tracks\n",
      "[\u001b[32;1m00007fcb08c0b6c0\u001b[0m] avcodec decoder: \u001b[0;1mUsing NVIDIA VDPAU Driver Shared Library  470.141.03  Thu Jun 30 18:33:34 UTC 2022 for hardware decoding\u001b[0m\n",
      "TagLib: MP4: No audio tracks\n",
      "[\u001b[32;1m00007fcb08c01950\u001b[0m] avcodec decoder: \u001b[0;1mUsing NVIDIA VDPAU Driver Shared Library  470.141.03  Thu Jun 30 18:33:34 UTC 2022 for hardware decoding\u001b[0m\n",
      "TagLib: MP4: No audio tracks\n",
      "[\u001b[32;1m00007fcb08ccc8f0\u001b[0m] avcodec decoder: \u001b[0;1mUsing NVIDIA VDPAU Driver Shared Library  470.141.03  Thu Jun 30 18:33:34 UTC 2022 for hardware decoding\u001b[0m\n",
      "TagLib: MP4: No audio tracks\n",
      "[\u001b[32;1m00007fcb08c0b6c0\u001b[0m] avcodec decoder: \u001b[0;1mUsing NVIDIA VDPAU Driver Shared Library  470.141.03  Thu Jun 30 18:33:34 UTC 2022 for hardware decoding\u001b[0m\n",
      "TagLib: MP4: No audio tracks\n",
      "[\u001b[32;1m00007fcb08c01b30\u001b[0m] avcodec decoder: \u001b[0;1mUsing NVIDIA VDPAU Driver Shared Library  470.141.03  Thu Jun 30 18:33:34 UTC 2022 for hardware decoding\u001b[0m\n",
      "TagLib: MP4: No audio tracks\n",
      "[\u001b[32;1m00007fcb08cac0d0\u001b[0m] avcodec decoder: \u001b[0;1mUsing NVIDIA VDPAU Driver Shared Library  470.141.03  Thu Jun 30 18:33:34 UTC 2022 for hardware decoding\u001b[0m\n",
      "TagLib: MP4: No audio tracks\n",
      "[\u001b[32;1m00007fcb08c07df0\u001b[0m] avcodec decoder: \u001b[0;1mUsing NVIDIA VDPAU Driver Shared Library  470.141.03  Thu Jun 30 18:33:34 UTC 2022 for hardware decoding\u001b[0m\n",
      "TagLib: MP4: No audio tracks\n",
      "[\u001b[32;1m00007fcb08c03ef0\u001b[0m] avcodec decoder: \u001b[0;1mUsing NVIDIA VDPAU Driver Shared Library  470.141.03  Thu Jun 30 18:33:34 UTC 2022 for hardware decoding\u001b[0m\n",
      "TagLib: MP4: No audio tracks\n",
      "[\u001b[32;1m00007fcb08c17960\u001b[0m] avcodec decoder: \u001b[0;1mUsing NVIDIA VDPAU Driver Shared Library  470.141.03  Thu Jun 30 18:33:34 UTC 2022 for hardware decoding\u001b[0m\n",
      "TagLib: MP4: No audio tracks\n",
      "[\u001b[32;1m00007fcb08c48d10\u001b[0m] avcodec decoder: \u001b[0;1mUsing NVIDIA VDPAU Driver Shared Library  470.141.03  Thu Jun 30 18:33:34 UTC 2022 for hardware decoding\u001b[0m\n",
      "TagLib: MP4: No audio tracks\n",
      "[\u001b[32;1m00007fcb08c0efc0\u001b[0m] avcodec decoder: \u001b[0;1mUsing NVIDIA VDPAU Driver Shared Library  470.141.03  Thu Jun 30 18:33:34 UTC 2022 for hardware decoding\u001b[0m\n",
      "TagLib: MP4: No audio tracks\n",
      "[\u001b[32;1m00007fcb08c0efc0\u001b[0m] avcodec decoder: \u001b[0;1mUsing NVIDIA VDPAU Driver Shared Library  470.141.03  Thu Jun 30 18:33:34 UTC 2022 for hardware decoding\u001b[0m\n",
      "TagLib: MP4: No audio tracks\n",
      "[\u001b[32;1m00007fcb08c0efc0\u001b[0m] avcodec decoder: \u001b[0;1mUsing NVIDIA VDPAU Driver Shared Library  470.141.03  Thu Jun 30 18:33:34 UTC 2022 for hardware decoding\u001b[0m\n",
      "TagLib: MP4: No audio tracks\n",
      "[\u001b[32;1m00007fcb08c07e20\u001b[0m] avcodec decoder: \u001b[0;1mUsing NVIDIA VDPAU Driver Shared Library  470.141.03  Thu Jun 30 18:33:34 UTC 2022 for hardware decoding\u001b[0m\n",
      "TagLib: MP4: No audio tracks\n",
      "[\u001b[32;1m00007fcb08c0df20\u001b[0m] avcodec decoder: \u001b[0;1mUsing NVIDIA VDPAU Driver Shared Library  470.141.03  Thu Jun 30 18:33:34 UTC 2022 for hardware decoding\u001b[0m\n",
      "TagLib: MP4: No audio tracks\n",
      "[\u001b[32;1m00007fcb08c07df0\u001b[0m] avcodec decoder: \u001b[0;1mUsing NVIDIA VDPAU Driver Shared Library  470.141.03  Thu Jun 30 18:33:34 UTC 2022 for hardware decoding\u001b[0m\n",
      "TagLib: MP4: No audio tracks\n",
      "[\u001b[32;1m00007fcb08c02b00\u001b[0m] avcodec decoder: \u001b[0;1mUsing NVIDIA VDPAU Driver Shared Library  470.141.03  Thu Jun 30 18:33:34 UTC 2022 for hardware decoding\u001b[0m\n",
      "TagLib: MP4: No audio tracks\n",
      "[\u001b[32;1m00007fcb08c4a680\u001b[0m] avcodec decoder: \u001b[0;1mUsing NVIDIA VDPAU Driver Shared Library  470.141.03  Thu Jun 30 18:33:34 UTC 2022 for hardware decoding\u001b[0m\n",
      "TagLib: MP4: No audio tracks\n",
      "[\u001b[32;1m00007fcb08c07df0\u001b[0m] avcodec decoder: \u001b[0;1mUsing NVIDIA VDPAU Driver Shared Library  470.141.03  Thu Jun 30 18:33:34 UTC 2022 for hardware decoding\u001b[0m\n",
      "TagLib: MP4: No audio tracks\n",
      "[\u001b[32;1m00007fcb08ccad60\u001b[0m] avcodec decoder: \u001b[0;1mUsing NVIDIA VDPAU Driver Shared Library  470.141.03  Thu Jun 30 18:33:34 UTC 2022 for hardware decoding\u001b[0m\n",
      "TagLib: MP4: No audio tracks\n",
      "[\u001b[32;1m00007fcb08c0b6c0\u001b[0m] avcodec decoder: \u001b[0;1mUsing NVIDIA VDPAU Driver Shared Library  470.141.03  Thu Jun 30 18:33:34 UTC 2022 for hardware decoding\u001b[0m\n",
      "TagLib: MP4: No audio tracks\n",
      "[\u001b[32;1m00007fcb08c13770\u001b[0m] avcodec decoder: \u001b[0;1mUsing NVIDIA VDPAU Driver Shared Library  470.141.03  Thu Jun 30 18:33:34 UTC 2022 for hardware decoding\u001b[0m\n",
      "TagLib: MP4: No audio tracks\n",
      "[\u001b[32;1m00007fcb08c0b6c0\u001b[0m] avcodec decoder: \u001b[0;1mUsing NVIDIA VDPAU Driver Shared Library  470.141.03  Thu Jun 30 18:33:34 UTC 2022 for hardware decoding\u001b[0m\n",
      "TagLib: MP4: No audio tracks\n",
      "[\u001b[32;1m00007fcb08c123e0\u001b[0m] avcodec decoder: \u001b[0;1mUsing NVIDIA VDPAU Driver Shared Library  470.141.03  Thu Jun 30 18:33:34 UTC 2022 for hardware decoding\u001b[0m\n",
      "TagLib: MP4: No audio tracks\n",
      "[\u001b[32;1m00007fcb08c47470\u001b[0m] avcodec decoder: \u001b[0;1mUsing NVIDIA VDPAU Driver Shared Library  470.141.03  Thu Jun 30 18:33:34 UTC 2022 for hardware decoding\u001b[0m\n",
      "TagLib: MP4: No audio tracks\n",
      "[\u001b[32;1m00007fcb08c4aee0\u001b[0m] avcodec decoder: \u001b[0;1mUsing NVIDIA VDPAU Driver Shared Library  470.141.03  Thu Jun 30 18:33:34 UTC 2022 for hardware decoding\u001b[0m\n",
      "TagLib: MP4: No audio tracks\n",
      "[\u001b[32;1m00007fcb08c10cf0\u001b[0m] avcodec decoder: \u001b[0;1mUsing NVIDIA VDPAU Driver Shared Library  470.141.03  Thu Jun 30 18:33:34 UTC 2022 for hardware decoding\u001b[0m\n",
      "TagLib: MP4: No audio tracks\n",
      "[\u001b[32;1m00007fcb08c0b6c0\u001b[0m] avcodec decoder: \u001b[0;1mUsing NVIDIA VDPAU Driver Shared Library  470.141.03  Thu Jun 30 18:33:34 UTC 2022 for hardware decoding\u001b[0m\n",
      "TagLib: MP4: No audio tracks\n",
      "[\u001b[32;1m00007fcb08c0b6c0\u001b[0m] avcodec decoder: \u001b[0;1mUsing NVIDIA VDPAU Driver Shared Library  470.141.03  Thu Jun 30 18:33:34 UTC 2022 for hardware decoding\u001b[0m\n",
      "TagLib: MP4: No audio tracks\n",
      "[\u001b[32;1m00007fcb08c0b6c0\u001b[0m] avcodec decoder: \u001b[0;1mUsing NVIDIA VDPAU Driver Shared Library  470.141.03  Thu Jun 30 18:33:34 UTC 2022 for hardware decoding\u001b[0m\n",
      "TagLib: MP4: No audio tracks\n",
      "[\u001b[32;1m00007fcb08c4c530\u001b[0m] avcodec decoder: \u001b[0;1mUsing NVIDIA VDPAU Driver Shared Library  470.141.03  Thu Jun 30 18:33:34 UTC 2022 for hardware decoding\u001b[0m\n",
      "TagLib: MP4: No audio tracks\n",
      "[\u001b[32;1m00007fcb08c10f40\u001b[0m] avcodec decoder: \u001b[0;1mUsing NVIDIA VDPAU Driver Shared Library  470.141.03  Thu Jun 30 18:33:34 UTC 2022 for hardware decoding\u001b[0m\n",
      "TagLib: MP4: No audio tracks\n",
      "[\u001b[32;1m00007fcb08c0b090\u001b[0m] avcodec decoder: \u001b[0;1mUsing NVIDIA VDPAU Driver Shared Library  470.141.03  Thu Jun 30 18:33:34 UTC 2022 for hardware decoding\u001b[0m\n",
      "TagLib: MP4: No audio tracks\n",
      "[\u001b[32;1m00007fcb08c05d60\u001b[0m] avcodec decoder: \u001b[0;1mUsing NVIDIA VDPAU Driver Shared Library  470.141.03  Thu Jun 30 18:33:34 UTC 2022 for hardware decoding\u001b[0m\n",
      "TagLib: MP4: No audio tracks\n",
      "[\u001b[32;1m00007fcb0c004ad0\u001b[0m] avcodec decoder: \u001b[0;1mUsing NVIDIA VDPAU Driver Shared Library  470.141.03  Thu Jun 30 18:33:34 UTC 2022 for hardware decoding\u001b[0m\n",
      "TagLib: MP4: No audio tracks\n",
      "[\u001b[32;1m00007fcb0c004470\u001b[0m] avcodec decoder: \u001b[0;1mUsing NVIDIA VDPAU Driver Shared Library  470.141.03  Thu Jun 30 18:33:34 UTC 2022 for hardware decoding\u001b[0m\n",
      "TagLib: MP4: No audio tracks\n",
      "[\u001b[32;1m00007fcb0c007fe0\u001b[0m] avcodec decoder: \u001b[0;1mUsing NVIDIA VDPAU Driver Shared Library  470.141.03  Thu Jun 30 18:33:34 UTC 2022 for hardware decoding\u001b[0m\n",
      "TagLib: MP4: No audio tracks\n",
      "[\u001b[32;1m00007fcb0c0149f0\u001b[0m] avcodec decoder: \u001b[0;1mUsing NVIDIA VDPAU Driver Shared Library  470.141.03  Thu Jun 30 18:33:34 UTC 2022 for hardware decoding\u001b[0m\n",
      "TagLib: MP4: No audio tracks\n",
      "[\u001b[32;1m00007fcb0c00ce40\u001b[0m] avcodec decoder: \u001b[0;1mUsing NVIDIA VDPAU Driver Shared Library  470.141.03  Thu Jun 30 18:33:34 UTC 2022 for hardware decoding\u001b[0m\n",
      "TagLib: MP4: No audio tracks\n",
      "[\u001b[32;1m00007fcb0c0119c0\u001b[0m] avcodec decoder: \u001b[0;1mUsing NVIDIA VDPAU Driver Shared Library  470.141.03  Thu Jun 30 18:33:34 UTC 2022 for hardware decoding\u001b[0m\n",
      "TagLib: MP4: No audio tracks\n",
      "[\u001b[32;1m00007fcb0c003a20\u001b[0m] avcodec decoder: \u001b[0;1mUsing NVIDIA VDPAU Driver Shared Library  470.141.03  Thu Jun 30 18:33:34 UTC 2022 for hardware decoding\u001b[0m\n",
      "TagLib: MP4: No audio tracks\n",
      "[\u001b[32;1m00007fcb0cc88040\u001b[0m] avcodec decoder: \u001b[0;1mUsing NVIDIA VDPAU Driver Shared Library  470.141.03  Thu Jun 30 18:33:34 UTC 2022 for hardware decoding\u001b[0m\n",
      "TagLib: MP4: No audio tracks\n",
      "[\u001b[32;1m00007fcb0c00aee0\u001b[0m] avcodec decoder: \u001b[0;1mUsing NVIDIA VDPAU Driver Shared Library  470.141.03  Thu Jun 30 18:33:34 UTC 2022 for hardware decoding\u001b[0m\n",
      "TagLib: MP4: No audio tracks\n",
      "[\u001b[32;1m00007fcb0c00b8f0\u001b[0m] avcodec decoder: \u001b[0;1mUsing NVIDIA VDPAU Driver Shared Library  470.141.03  Thu Jun 30 18:33:34 UTC 2022 for hardware decoding\u001b[0m\n",
      "TagLib: MP4: No audio tracks\n",
      "[\u001b[32;1m00007fcb0c002100\u001b[0m] avcodec decoder: \u001b[0;1mUsing NVIDIA VDPAU Driver Shared Library  470.141.03  Thu Jun 30 18:33:34 UTC 2022 for hardware decoding\u001b[0m\n",
      "TagLib: MP4: No audio tracks\n",
      "[\u001b[32;1m00007fcb0c008f20\u001b[0m] avcodec decoder: \u001b[0;1mUsing NVIDIA VDPAU Driver Shared Library  470.141.03  Thu Jun 30 18:33:34 UTC 2022 for hardware decoding\u001b[0m\n",
      "TagLib: MP4: No audio tracks\n",
      "[\u001b[32;1m00007fcb0c009640\u001b[0m] avcodec decoder: \u001b[0;1mUsing NVIDIA VDPAU Driver Shared Library  470.141.03  Thu Jun 30 18:33:34 UTC 2022 for hardware decoding\u001b[0m\n",
      "TagLib: MP4: No audio tracks\n",
      "[\u001b[32;1m00007fcb0c06bc10\u001b[0m] avcodec decoder: \u001b[0;1mUsing NVIDIA VDPAU Driver Shared Library  470.141.03  Thu Jun 30 18:33:34 UTC 2022 for hardware decoding\u001b[0m\n",
      "TagLib: MP4: No audio tracks\n",
      "[\u001b[32;1m00007fcb0c009360\u001b[0m] avcodec decoder: \u001b[0;1mUsing NVIDIA VDPAU Driver Shared Library  470.141.03  Thu Jun 30 18:33:34 UTC 2022 for hardware decoding\u001b[0m\n",
      "TagLib: MP4: No audio tracks\n",
      "[\u001b[32;1m00007fcb0c00b350\u001b[0m] avcodec decoder: \u001b[0;1mUsing NVIDIA VDPAU Driver Shared Library  470.141.03  Thu Jun 30 18:33:34 UTC 2022 for hardware decoding\u001b[0m\n",
      "TagLib: MP4: No audio tracks\n",
      "[\u001b[32;1m00007fcb0c065470\u001b[0m] avcodec decoder: \u001b[0;1mUsing NVIDIA VDPAU Driver Shared Library  470.141.03  Thu Jun 30 18:33:34 UTC 2022 for hardware decoding\u001b[0m\n",
      "QObject::~QObject: Timers cannot be stopped from another thread\n"
     ]
    }
   ],
   "source": [
    "# turn the images into a movie\n",
    "!ffmpeg -y -framerate 8 -pattern_type glob -i \"{OUTPUT_DIR}/*.jpg\"  \\\n",
    "    -c:v libx264 -pix_fmt yuv420p -vf trim=0:30 \"{OUTPUT_DIR}/movie.mp4\"\n",
    "\n",
    "# Play the movie with vlc (if it's installed)\n",
    "!vlc \"{OUTPUT_DIR}/movie.mp4\""
   ]
  },
  {
   "cell_type": "code",
   "execution_count": 152,
   "metadata": {},
   "outputs": [
    {
     "name": "stdout",
     "output_type": "stream",
     "text": [
      "ffmpeg version 4.4.2 Copyright (c) 2000-2021 the FFmpeg developers\n",
      "  built with gcc 10.4.0 (conda-forge gcc 10.4.0-16)\n",
      "  configuration: --prefix=/home/conda/feedstock_root/build_artifacts/ffmpeg_1664281150702/_h_env_placehold_placehold_placehold_placehold_placehold_placehold_placehold_placehold_placehold_placehold_placehold_placehold_placehold_placehold_placehold_placehold_placehold_placehold_plac --cc=/home/conda/feedstock_root/build_artifacts/ffmpeg_1664281150702/_build_env/bin/x86_64-conda-linux-gnu-cc --cxx=/home/conda/feedstock_root/build_artifacts/ffmpeg_1664281150702/_build_env/bin/x86_64-conda-linux-gnu-c++ --nm=/home/conda/feedstock_root/build_artifacts/ffmpeg_1664281150702/_build_env/bin/x86_64-conda-linux-gnu-nm --ar=/home/conda/feedstock_root/build_artifacts/ffmpeg_1664281150702/_build_env/bin/x86_64-conda-linux-gnu-ar --disable-doc --disable-openssl --enable-avresample --enable-demuxer=dash --enable-hardcoded-tables --enable-libfreetype --enable-libfontconfig --enable-libopenh264 --enable-gnutls --enable-libmp3lame --enable-libvpx --enable-pthreads --enable-vaapi --enable-gpl --enable-libx264 --enable-libx265 --enable-libaom --enable-libsvtav1 --enable-libxml2 --enable-pic --enable-shared --disable-static --enable-version3 --enable-zlib --pkg-config=/home/conda/feedstock_root/build_artifacts/ffmpeg_1664281150702/_build_env/bin/pkg-config\n",
      "  libavutil      56. 70.100 / 56. 70.100\n",
      "  libavcodec     58.134.100 / 58.134.100\n",
      "  libavformat    58. 76.100 / 58. 76.100\n",
      "  libavdevice    58. 13.100 / 58. 13.100\n",
      "  libavfilter     7.110.100 /  7.110.100\n",
      "  libavresample   4.  0.  0 /  4.  0.  0\n",
      "  libswscale      5.  9.100 /  5.  9.100\n",
      "  libswresample   3.  9.100 /  3.  9.100\n",
      "  libpostproc    55.  9.100 / 55.  9.100\n",
      "Input #0, mov,mp4,m4a,3gp,3g2,mj2, from 'images/20221002-164059/movie.mp4':\n",
      "  Metadata:\n",
      "    major_brand     : isom\n",
      "    minor_version   : 512\n",
      "    compatible_brands: isomiso2avc1mp41\n",
      "    encoder         : Lavf58.76.100\n",
      "  Duration: 00:00:02.50, start: 0.000000, bitrate: 4221 kb/s\n",
      "  Stream #0:0(und): Video: h264 (High) (avc1 / 0x31637661), yuv420p(tv, bt470bg/unknown/unknown), 512x512 [SAR 1:1 DAR 1:1], 4218 kb/s, 8 fps, 8 tbr, 16384 tbn, 16 tbc (default)\n",
      "    Metadata:\n",
      "      handler_name    : VideoHandler\n",
      "      vendor_id       : [0][0][0][0]\n",
      "Stream mapping:\n",
      "  Stream #0:0 (h264) -> reverse\n",
      "  Stream #0:0 (h264) -> concat:in0:v0\n",
      "  concat -> Stream #0:0 (libx264)\n",
      "Press [q] to stop, [?] for help\n",
      "\u001b[1;36m[libx264 @ 0x56266d160800] \u001b[0musing SAR=1/1\n",
      "\u001b[1;36m[libx264 @ 0x56266d160800] \u001b[0musing cpu capabilities: MMX2 SSE2Fast SSSE3 SSE4.2 AVX FMA3 BMI2 AVX2\n",
      "\u001b[1;36m[libx264 @ 0x56266d160800] \u001b[0mprofile High, level 2.2, 4:2:0, 8-bit\n",
      "\u001b[1;36m[libx264 @ 0x56266d160800] \u001b[0m264 - core 164 r3095 baee400 - H.264/MPEG-4 AVC codec - Copyleft 2003-2022 - http://www.videolan.org/x264.html - options: cabac=1 ref=3 deblock=1:0:0 analyse=0x3:0x113 me=hex subme=7 psy=1 psy_rd=1.00:0.00 mixed_ref=1 me_range=16 chroma_me=1 trellis=1 8x8dct=1 cqm=0 deadzone=21,11 fast_pskip=1 chroma_qp_offset=-2 threads=16 lookahead_threads=2 sliced_threads=0 nr=0 decimate=1 interlaced=0 bluray_compat=0 constrained_intra=0 bframes=3 b_pyramid=2 b_adapt=1 b_bias=0 direct=1 weightb=1 open_gop=0 weightp=2 keyint=250 keyint_min=8 scenecut=40 intra_refresh=0 rc_lookahead=40 rc=crf mbtree=1 crf=23.0 qcomp=0.60 qpmin=0 qpmax=69 qpstep=4 ip_ratio=1.40 aq=1:1.00\n",
      "Output #0, mp4, to 'images/20221002-164059/movie_loop.mp4':\n",
      "  Metadata:\n",
      "    major_brand     : isom\n",
      "    minor_version   : 512\n",
      "    compatible_brands: isomiso2avc1mp41\n",
      "    encoder         : Lavf58.76.100\n",
      "  Stream #0:0: Video: h264 (avc1 / 0x31637661), yuv420p(tv, bt470bg/unknown/unknown, progressive), 512x512 [SAR 1:1 DAR 1:1], q=2-31, 8 fps, 16384 tbn (default)\n",
      "    Metadata:\n",
      "      encoder         : Lavc58.134.100 libx264\n",
      "    Side data:\n",
      "      cpb: bitrate max/min/avg: 0/0/0 buffer size: 0 vbv_delay: N/A\n",
      "frame=   40 fps=0.0 q=-1.0 Lsize=    2476kB time=00:00:04.62 bitrate=4386.1kbits/s speed=10.2x    \n",
      "video:2475kB audio:0kB subtitle:0kB other streams:0kB global headers:0kB muxing overhead: 0.049082%\n",
      "\u001b[1;36m[libx264 @ 0x56266d160800] \u001b[0mframe I:2     Avg QP:26.09  size: 76014\n",
      "\u001b[1;36m[libx264 @ 0x56266d160800] \u001b[0mframe P:25    Avg QP:27.02  size: 64627\n",
      "\u001b[1;36m[libx264 @ 0x56266d160800] \u001b[0mframe B:13    Avg QP:26.88  size: 58932\n",
      "\u001b[1;36m[libx264 @ 0x56266d160800] \u001b[0mconsecutive B-frames: 52.5% 10.0%  7.5% 30.0%\n",
      "\u001b[1;36m[libx264 @ 0x56266d160800] \u001b[0mmb I  I16..4:  0.0% 95.5%  4.5%\n",
      "\u001b[1;36m[libx264 @ 0x56266d160800] \u001b[0mmb P  I16..4:  0.1% 81.1% 12.2%  P16..4:  2.1%  2.7%  1.9%  0.0%  0.0%    skip: 0.0%\n",
      "\u001b[1;36m[libx264 @ 0x56266d160800] \u001b[0mmb B  I16..4:  0.0% 36.1% 22.8%  B16..8:  8.6% 14.0%  7.6%  direct: 3.1%  skip: 7.7%  L0:31.2% L1:25.4% BI:43.4%\n",
      "\u001b[1;36m[libx264 @ 0x56266d160800] \u001b[0m8x8 transform intra:81.4% inter:91.7%\n",
      "\u001b[1;36m[libx264 @ 0x56266d160800] \u001b[0mcoded y,uvDC,uvAC intra: 99.5% 92.6% 71.3% inter: 84.4% 82.1% 31.3%\n",
      "\u001b[1;36m[libx264 @ 0x56266d160800] \u001b[0mi16 v,h,dc,p:  6%  6%  0% 88%\n",
      "\u001b[1;36m[libx264 @ 0x56266d160800] \u001b[0mi8 v,h,dc,ddl,ddr,vr,hd,vl,hu: 25%  8% 22%  4%  6% 19%  4%  5%  6%\n",
      "\u001b[1;36m[libx264 @ 0x56266d160800] \u001b[0mi4 v,h,dc,ddl,ddr,vr,hd,vl,hu: 33%  5%  8%  4%  7% 26%  4%  7%  5%\n",
      "\u001b[1;36m[libx264 @ 0x56266d160800] \u001b[0mi8c dc,h,v,p: 47% 14% 30%  9%\n",
      "\u001b[1;36m[libx264 @ 0x56266d160800] \u001b[0mWeighted P-Frames: Y:44.0% UV:44.0%\n",
      "\u001b[1;36m[libx264 @ 0x56266d160800] \u001b[0mref P L0: 36.7% 17.5% 15.5% 19.7% 10.6%\n",
      "\u001b[1;36m[libx264 @ 0x56266d160800] \u001b[0mref B L0: 75.0% 20.7%  4.3%\n",
      "\u001b[1;36m[libx264 @ 0x56266d160800] \u001b[0mref B L1: 96.4%  3.6%\n",
      "\u001b[1;36m[libx264 @ 0x56266d160800] \u001b[0mkb/s:4054.13\n",
      "VLC media player 3.0.16 Vetinari (revision 3.0.16-0-g5e70837d8d)\n",
      "[\u001b[32;1m000055a79bd83a00\u001b[0m] main libvlc: \u001b[0;1mRunning vlc with the default interface. Use 'cvlc' to use vlc without interface.\u001b[0m\n",
      "TagLib: MP4: No audio tracks\n",
      "Qt: Session management error: Could not open network socket\n",
      "TagLib: MP4: No audio tracks\n",
      "libva info: VA-API version 1.1.0\n",
      "libva info: va_getDriverName() returns 0\n",
      "libva info: Trying to open /snap/vlc/2344/usr/lib/x86_64-linux-gnu/dri/nvidia_drv_video.so\n",
      "libva info: Found init function __vaDriverInit_1_0\n",
      "libva info: va_openDriver() returns 0\n",
      "[\u001b[32;1m00007fcd5c001f30\u001b[0m] glconv_vaapi_x11 gl error: \u001b[31;1mvaCreateSurfaces: attribute not supported\u001b[0m\n",
      "[\u001b[32;1m00007fcd6405a5f0\u001b[0m] main video output error: \u001b[31;1mvideo output creation failed\u001b[0m\n",
      "[\u001b[32;1m00007fcd74c02220\u001b[0m] main decoder error: \u001b[31;1mfailed to create video output\u001b[0m\n",
      "[\u001b[32;1m00007fcd74c02220\u001b[0m] avcodec decoder: \u001b[0;1mUsing NVIDIA VDPAU Driver Shared Library  470.141.03  Thu Jun 30 18:33:34 UTC 2022 for hardware decoding\u001b[0m\n",
      "TagLib: MP4: No audio tracks\n",
      "[\u001b[32;1m00007fcd74c45e10\u001b[0m] avcodec decoder: \u001b[0;1mUsing NVIDIA VDPAU Driver Shared Library  470.141.03  Thu Jun 30 18:33:34 UTC 2022 for hardware decoding\u001b[0m\n",
      "QObject::~QObject: Timers cannot be stopped from another thread\n"
     ]
    }
   ],
   "source": [
    "# make the movie into a loop, by concatenating the reverse of it\n",
    "!ffmpeg -i \"{OUTPUT_DIR}/movie.mp4\"  \\\n",
    "    -filter_complex \"[0:v]reverse,fifo[r];[0:v][r] concat=n=2:v=1 [v]\" -map \"[v]\"  \\\n",
    "    -y  \\\n",
    "    \"{OUTPUT_DIR}/movie_loop.mp4\"\n",
    "\n",
    "!vlc \"{OUTPUT_DIR}/movie_loop.mp4\""
   ]
  }
 ],
 "metadata": {
  "kernelspec": {
   "display_name": "Python 3.9.13 ('stable-diffusion-im2im')",
   "language": "python",
   "name": "python3"
  },
  "language_info": {
   "codemirror_mode": {
    "name": "ipython",
    "version": 3
   },
   "file_extension": ".py",
   "mimetype": "text/x-python",
   "name": "python",
   "nbconvert_exporter": "python",
   "pygments_lexer": "ipython3",
   "version": "3.9.13"
  },
  "orig_nbformat": 4,
  "vscode": {
   "interpreter": {
    "hash": "cea3af3ea9aced30a5c72c792fbd026032c096800e9cc9471dd580bb4e3cffca"
   }
  }
 },
 "nbformat": 4,
 "nbformat_minor": 2
}
